<?xml version="1.0" encoding="utf-8"?>
<!-- Generator: Adobe Illustrator 16.0.4, SVG Export Plug-In . SVG Version: 6.00 Build 0)  -->
<!DOCTYPE svg PUBLIC "-//W3C//DTD SVG 1.1//EN" "http://www.w3.org/Graphics/SVG/1.1/DTD/svg11.dtd">
<svg version="1.1" id="Layer_1" xmlns="http://www.w3.org/2000/svg" xmlns:xlink="http://www.w3.org/1999/xlink" x="0px" y="0px"
	 width="250px" height="60px" viewBox="0 0 250 60" enable-background="new 0 0 250 60" xml:space="preserve">
<g>
	<path fill="#FFFFFF" d="M85.058,25.268c-0.215,0-0.395-0.073-0.54-0.218c-0.146-0.146-0.272-0.302-0.379-0.469l-7.469-11.2v11.268
		c0,0.169-0.062,0.313-0.184,0.437c-0.124,0.122-0.268,0.182-0.436,0.182h-0.942c-0.169,0-0.314-0.06-0.437-0.182
		c-0.124-0.123-0.184-0.268-0.184-0.437V9.854c0-0.168,0.062-0.312,0.184-0.436c0.122-0.121,0.268-0.182,0.437-0.182h0.803
		c0.215,0,0.395,0.072,0.541,0.217c0.146,0.146,0.271,0.302,0.378,0.471l7.47,11.2V9.854c0-0.168,0.06-0.312,0.183-0.436
		c0.123-0.121,0.268-0.182,0.437-0.182h0.941c0.168,0,0.313,0.061,0.437,0.182c0.123,0.124,0.184,0.268,0.184,0.436V24.65
		c0,0.168-0.062,0.314-0.184,0.437c-0.123,0.122-0.269,0.182-0.437,0.182L85.058,25.268L85.058,25.268z"/>
	<path fill="#FFFFFF" d="M95.582,15.214c0.016-0.854,0.165-1.66,0.449-2.417c0.284-0.755,0.693-1.412,1.23-1.97
		c0.535-0.556,1.194-1,1.976-1.328c0.781-0.329,1.677-0.493,2.688-0.493c1.012,0,1.907,0.164,2.689,0.493
		c0.782,0.328,1.44,0.771,1.976,1.328c0.536,0.558,0.947,1.215,1.23,1.97c0.283,0.755,0.433,1.562,0.448,2.417
		c0.046,1.358,0.046,2.718,0,4.077c-0.031,0.855-0.188,1.66-0.471,2.417c-0.283,0.754-0.693,1.416-1.229,1.98
		c-0.537,0.564-1.191,1.008-1.965,1.328c-0.775,0.321-1.666,0.481-2.678,0.481c-1.011,0-1.903-0.16-2.677-0.481
		c-0.773-0.32-1.428-0.764-1.965-1.328c-0.537-0.564-0.946-1.226-1.229-1.98c-0.284-0.756-0.441-1.562-0.472-2.417
		C95.537,17.932,95.537,16.572,95.582,15.214z M106.085,15.329c-0.031-0.718-0.149-1.344-0.356-1.879
		c-0.207-0.535-0.494-0.978-0.862-1.329c-0.368-0.35-0.802-0.614-1.299-0.789c-0.497-0.176-1.046-0.264-1.644-0.264
		c-0.596,0-1.145,0.088-1.643,0.264c-0.498,0.175-0.93,0.439-1.299,0.789c-0.367,0.352-0.658,0.794-0.873,1.329
		c-0.214,0.535-0.33,1.161-0.345,1.879c-0.032,0.687-0.045,1.328-0.045,1.923c0,0.595,0.015,1.237,0.045,1.924
		c0.016,0.718,0.131,1.344,0.345,1.879c0.214,0.534,0.505,0.977,0.873,1.328c0.369,0.352,0.801,0.615,1.299,0.79
		c0.498,0.175,1.046,0.264,1.643,0.264c0.598,0,1.146-0.088,1.644-0.264c0.498-0.176,0.931-0.438,1.299-0.79
		c0.367-0.351,0.655-0.793,0.862-1.328c0.207-0.535,0.325-1.161,0.356-1.879c0.03-0.687,0.045-1.329,0.045-1.924
		C106.13,16.657,106.115,16.016,106.085,15.329z"/>
	<path fill="#FFFFFF" d="M123.55,9.236c0.75,0,1.458,0.091,2.125,0.274c0.666,0.184,1.253,0.467,1.758,0.848
		c0.506,0.383,0.907,0.871,1.206,1.466c0.298,0.596,0.448,1.314,0.448,2.153c0,1.236-0.311,2.221-0.93,2.954
		c-0.621,0.733-1.414,1.252-2.379,1.558l3.471,6.024c0.046,0.091,0.068,0.174,0.068,0.251c0,0.139-0.049,0.256-0.148,0.354
		c-0.102,0.1-0.22,0.149-0.356,0.149h-0.989c-0.307,0-0.533-0.075-0.678-0.229c-0.146-0.152-0.248-0.283-0.31-0.39l-3.333-5.84
		h-3.952v5.84c0,0.169-0.062,0.313-0.184,0.437c-0.122,0.122-0.268,0.182-0.437,0.182h-0.942c-0.168,0-0.313-0.06-0.437-0.182
		c-0.122-0.123-0.184-0.268-0.184-0.437V9.854c0-0.168,0.062-0.312,0.184-0.436c0.123-0.121,0.269-0.182,0.437-0.182L123.55,9.236
		L123.55,9.236z M119.552,16.748h3.884c1.103,0,1.956-0.216,2.562-0.652c0.604-0.435,0.908-1.14,0.908-2.118
		s-0.304-1.667-0.908-2.073c-0.605-0.404-1.459-0.607-2.562-0.607h-3.884V16.748z"/>
	<path fill="#FFFFFF" d="M147.817,9.236c0.168,0,0.313,0.061,0.438,0.182c0.123,0.124,0.184,0.268,0.184,0.436v0.824
		c0,0.168-0.061,0.314-0.184,0.436c-0.124,0.122-0.27,0.183-0.438,0.183h-4.298v13.352c0,0.169-0.06,0.313-0.182,0.437
		c-0.124,0.122-0.271,0.182-0.438,0.182h-0.941c-0.168,0-0.314-0.06-0.438-0.182c-0.122-0.123-0.185-0.268-0.185-0.437V11.297
		h-4.296c-0.169,0-0.313-0.062-0.437-0.183c-0.124-0.122-0.183-0.268-0.183-0.436V9.854c0-0.168,0.059-0.312,0.183-0.436
		c0.123-0.121,0.268-0.182,0.437-0.182L147.817,9.236L147.817,9.236z"/>
	<path fill="#FFFFFF" d="M168.524,9.236c0.166,0,0.313,0.061,0.435,0.182c0.124,0.124,0.186,0.268,0.186,0.436v14.796
		c0,0.168-0.062,0.313-0.186,0.437c-0.121,0.122-0.269,0.182-0.435,0.182h-0.942c-0.17,0-0.315-0.061-0.437-0.182
		c-0.124-0.122-0.185-0.268-0.185-0.437v-6.458h-8.09v6.458c0,0.168-0.062,0.314-0.185,0.437c-0.122,0.122-0.268,0.182-0.438,0.182
		h-0.941c-0.167,0-0.312-0.057-0.435-0.171c-0.122-0.115-0.184-0.264-0.184-0.448V9.854c0-0.168,0.062-0.312,0.184-0.436
		c0.122-0.121,0.268-0.182,0.435-0.182h0.941c0.17,0,0.315,0.061,0.438,0.182c0.123,0.124,0.185,0.268,0.185,0.436v6.275h8.09V9.854
		c0-0.168,0.061-0.312,0.185-0.436c0.121-0.121,0.267-0.182,0.437-0.182L168.524,9.236L168.524,9.236z"/>
	<path fill="#FFFFFF" d="M188.815,23.207c0.168,0,0.312,0.061,0.436,0.183c0.123,0.124,0.186,0.268,0.186,0.436v0.824
		c0,0.168-0.062,0.313-0.186,0.437c-0.123,0.122-0.268,0.182-0.436,0.182h-9.354c-0.168,0-0.314-0.061-0.438-0.182
		c-0.122-0.122-0.184-0.268-0.184-0.437V9.854c0-0.168,0.062-0.312,0.184-0.436c0.123-0.121,0.27-0.182,0.438-0.182h0.942
		c0.167,0,0.313,0.061,0.437,0.182c0.122,0.124,0.183,0.268,0.183,0.436v13.354L188.815,23.207L188.815,23.207z"/>
	<path fill="#FFFFFF" d="M207.406,21.65h-7.975l-1.194,3.046c-0.046,0.122-0.13,0.249-0.254,0.377
		c-0.123,0.13-0.336,0.195-0.641,0.195h-0.853c-0.138,0-0.257-0.05-0.356-0.149c-0.1-0.099-0.147-0.217-0.147-0.354
		c0-0.077,0.029-0.183,0.091-0.321l5.63-14.451c0.076-0.167,0.192-0.336,0.344-0.505c0.154-0.167,0.384-0.252,0.69-0.252h1.378
		c0.309,0,0.536,0.084,0.691,0.252c0.151,0.169,0.269,0.336,0.345,0.505l5.606,14.451c0.062,0.138,0.092,0.245,0.092,0.321
		c0,0.138-0.05,0.255-0.148,0.354c-0.101,0.1-0.22,0.149-0.356,0.149h-0.851c-0.308,0-0.522-0.064-0.643-0.195
		c-0.126-0.129-0.209-0.256-0.254-0.377L207.406,21.65z M200.235,19.589h6.364l-3.171-8.178L200.235,19.589z"/>
	<path fill="#FFFFFF" d="M222.343,16.91l7.837,7.442c0.092,0.091,0.151,0.172,0.183,0.239c0.032,0.071,0.046,0.127,0.046,0.172
		c0,0.139-0.048,0.256-0.148,0.354c-0.1,0.1-0.219,0.149-0.356,0.149h-1.425c-0.216,0-0.39-0.042-0.527-0.126
		c-0.139-0.083-0.237-0.156-0.299-0.216l-6.504-6.186v5.909c0,0.169-0.062,0.313-0.187,0.437c-0.122,0.122-0.267,0.182-0.437,0.182
		h-0.94c-0.168,0-0.313-0.06-0.438-0.182c-0.122-0.123-0.183-0.268-0.183-0.437V9.854c0-0.168,0.061-0.312,0.183-0.436
		c0.124-0.121,0.27-0.182,0.438-0.182h0.94c0.17,0,0.314,0.061,0.437,0.182c0.125,0.124,0.187,0.268,0.187,0.436v5.337l6.136-5.611
		c0.059-0.062,0.161-0.133,0.299-0.217c0.137-0.085,0.312-0.126,0.529-0.126h1.331c0.138,0,0.257,0.049,0.355,0.149
		c0.1,0.099,0.152,0.218,0.152,0.354c0,0.046-0.019,0.104-0.048,0.172c-0.032,0.069-0.091,0.148-0.185,0.24L222.343,16.91z"/>
	<path fill="#FFFFFF" d="M248.382,23.207c0.167,0,0.312,0.061,0.436,0.183c0.122,0.124,0.183,0.268,0.183,0.436v0.824
		c0,0.168-0.061,0.313-0.183,0.437c-0.123,0.122-0.269,0.182-0.436,0.182h-9.284c-0.169,0-0.314-0.061-0.438-0.182
		c-0.124-0.122-0.183-0.268-0.183-0.437V9.854c0-0.168,0.059-0.312,0.183-0.436c0.123-0.121,0.269-0.182,0.438-0.182h9.098
		c0.17,0,0.314,0.061,0.438,0.182c0.124,0.124,0.185,0.268,0.185,0.436v0.824c0,0.168-0.061,0.313-0.185,0.436
		c-0.123,0.122-0.268,0.183-0.438,0.183h-7.536v4.833h7.032c0.166,0,0.313,0.061,0.437,0.183c0.123,0.124,0.184,0.268,0.184,0.435
		v0.825c0,0.168-0.061,0.313-0.184,0.436s-0.271,0.183-0.437,0.183h-7.032v5.016H248.382z"/>
	<g>
		<path fill="#FFFFFF" d="M81.923,44.188c0.026-0.019,0.054-0.039,0.083-0.059c0.168-0.127,0.339-0.298,0.504-0.508
			c0.165-0.212,0.311-0.476,0.433-0.78c0.124-0.312,0.188-0.675,0.188-1.082c0-0.32-0.065-0.686-0.193-1.085
			c-0.129-0.407-0.352-0.792-0.659-1.14c-0.308-0.352-0.722-0.648-1.232-0.885c-0.512-0.236-1.159-0.358-1.928-0.358h-4.629
			c-0.186,0-0.356,0.072-0.49,0.206c-0.135,0.135-0.206,0.305-0.206,0.49v11.12c0,0.186,0.072,0.354,0.206,0.488
			c0.134,0.136,0.304,0.204,0.491,0.204h4.879c0.651,0,1.238-0.106,1.741-0.318c0.506-0.212,0.934-0.499,1.271-0.854
			c0.336-0.353,0.595-0.754,0.765-1.194c0.172-0.438,0.258-0.895,0.258-1.358c0-0.695-0.18-1.315-0.531-1.84
			C82.598,44.825,82.278,44.474,81.923,44.188z M81.306,47.076c0,0.233-0.044,0.452-0.129,0.651c-0.086,0.2-0.217,0.383-0.388,0.543
			c-0.173,0.16-0.393,0.289-0.656,0.383c-0.268,0.092-0.583,0.141-0.937,0.141h-3.304v-3.467h3.304c0.375,0,0.7,0.053,0.967,0.148
			c0.264,0.1,0.482,0.229,0.648,0.391c0.165,0.158,0.289,0.345,0.368,0.554C81.264,46.634,81.306,46.854,81.306,47.076z
			 M75.893,43.319v-3.018h3.052c0.715,0,1.25,0.133,1.594,0.4c0.33,0.253,0.49,0.616,0.49,1.109c0,0.492-0.161,0.855-0.49,1.109
			c-0.343,0.266-0.879,0.4-1.594,0.4h-3.052V43.319z"/>
		<path fill="#FFFFFF" d="M91.466,38.292h-0.709c-0.186,0-0.356,0.072-0.491,0.206c-0.134,0.135-0.206,0.305-0.206,0.49v11.12
			c0,0.186,0.071,0.354,0.206,0.488c0.134,0.136,0.304,0.204,0.491,0.204h0.709c0.186,0,0.355-0.068,0.491-0.204
			c0.135-0.134,0.206-0.304,0.206-0.488V38.986c0-0.184-0.071-0.353-0.206-0.488C91.821,38.363,91.651,38.292,91.466,38.292z"/>
		<path fill="#FFFFFF" d="M107.553,44.188c0.025-0.019,0.054-0.039,0.082-0.059c0.167-0.127,0.338-0.298,0.504-0.508
			c0.166-0.212,0.311-0.476,0.433-0.78c0.124-0.312,0.187-0.675,0.187-1.082c0-0.32-0.065-0.686-0.192-1.085
			c-0.13-0.407-0.353-0.792-0.66-1.14c-0.309-0.352-0.724-0.648-1.235-0.885c-0.511-0.236-1.159-0.358-1.926-0.358h-4.629
			c-0.186,0-0.356,0.072-0.491,0.206c-0.134,0.135-0.205,0.305-0.205,0.49v11.12c0,0.186,0.071,0.354,0.206,0.488
			c0.134,0.136,0.305,0.204,0.492,0.204h4.879c0.651,0,1.237-0.106,1.741-0.318c0.506-0.212,0.933-0.499,1.272-0.854
			c0.337-0.354,0.595-0.754,0.765-1.194c0.171-0.438,0.258-0.895,0.258-1.358c0-0.695-0.178-1.315-0.531-1.84
			C108.227,44.825,107.909,44.474,107.553,44.188z M106.934,47.076c0,0.233-0.043,0.452-0.129,0.651
			c-0.085,0.2-0.216,0.383-0.387,0.543c-0.173,0.16-0.394,0.289-0.656,0.383c-0.268,0.092-0.583,0.141-0.937,0.141h-3.305v-3.467
			h3.305c0.375,0,0.7,0.053,0.967,0.148c0.265,0.1,0.481,0.229,0.648,0.391c0.165,0.158,0.289,0.345,0.369,0.554
			C106.893,46.634,106.934,46.854,106.934,47.076z M101.521,43.319v-3.018h3.052c0.714,0,1.252,0.133,1.596,0.4
			c0.328,0.253,0.488,0.616,0.488,1.109c0,0.492-0.16,0.855-0.488,1.109c-0.344,0.266-0.88,0.4-1.596,0.4h-3.052V43.319z"/>
		<path fill="#FFFFFF" d="M123.415,48.792h-5.625v-9.806c0-0.186-0.071-0.353-0.206-0.488c-0.135-0.135-0.304-0.206-0.49-0.206
			h-0.709c-0.186,0-0.356,0.072-0.491,0.206s-0.205,0.303-0.205,0.488v11.12c0,0.188,0.067,0.353,0.204,0.489
			c0.134,0.136,0.304,0.205,0.491,0.205h7.03c0.187,0,0.356-0.069,0.49-0.205c0.134-0.133,0.206-0.303,0.206-0.489v-0.619
			c0-0.187-0.072-0.355-0.207-0.49C123.771,48.863,123.602,48.792,123.415,48.792z"/>
		<path fill="#FFFFFF" d="M137.886,48.792h-5.571v-3.311h5.056c0.188,0,0.354-0.068,0.49-0.204c0.135-0.133,0.207-0.303,0.207-0.489
			v-0.621c0-0.185-0.072-0.354-0.207-0.49c-0.134-0.132-0.304-0.201-0.49-0.201h-5.056v-3.175h5.436
			c0.187,0,0.356-0.071,0.491-0.205c0.134-0.134,0.203-0.303,0.203-0.489v-0.62c0-0.186-0.069-0.354-0.203-0.488
			c-0.135-0.134-0.305-0.206-0.491-0.206h-6.839c-0.187,0-0.356,0.072-0.49,0.205c-0.136,0.135-0.207,0.304-0.207,0.489v11.12
			c0,0.187,0.071,0.356,0.207,0.489c0.132,0.136,0.303,0.205,0.49,0.205h6.976c0.188,0,0.358-0.069,0.492-0.205
			c0.135-0.133,0.206-0.304,0.206-0.489v-0.619c0-0.187-0.071-0.355-0.206-0.49C138.243,48.863,138.073,48.792,137.886,48.792z"/>
		<path fill="#FFFFFF" d="M159.229,40.94c0.497-0.538,1.235-0.812,2.188-0.812c0.524,0,0.969,0.064,1.32,0.191
			c0.351,0.129,0.642,0.294,0.868,0.491c0.223,0.197,0.396,0.423,0.516,0.674c0.124,0.268,0.22,0.54,0.282,0.796
			c0.035,0.187,0.127,0.336,0.268,0.434c0.133,0.089,0.27,0.134,0.407,0.134h0.795c0.165,0,0.312-0.062,0.431-0.179
			c0.117-0.115,0.18-0.266,0.18-0.438c-0.013-0.401-0.117-0.845-0.311-1.319c-0.195-0.471-0.497-0.92-0.902-1.336
			s-0.93-0.766-1.56-1.041c-0.631-0.273-1.401-0.414-2.292-0.414c-0.774,0-1.479,0.125-2.092,0.369
			c-0.611,0.247-1.146,0.59-1.584,1.023c-0.441,0.433-0.787,0.957-1.028,1.558c-0.241,0.596-0.373,1.247-0.395,1.937
			c-0.036,1.022-0.036,2.058,0,3.08c0.021,0.7,0.153,1.356,0.395,1.944c0.239,0.595,0.587,1.115,1.028,1.549
			c0.44,0.434,0.975,0.777,1.584,1.021c0.613,0.245,1.317,0.37,2.092,0.37c0.891,0,1.661-0.141,2.292-0.416
			c0.631-0.272,1.154-0.623,1.56-1.04c0.405-0.414,0.709-0.863,0.902-1.338c0.195-0.469,0.299-0.916,0.311-1.325
			c0-0.164-0.062-0.311-0.18-0.431c-0.12-0.116-0.27-0.177-0.431-0.177h-0.795c-0.138,0-0.273,0.045-0.407,0.134
			c-0.141,0.098-0.232,0.247-0.266,0.42c-0.064,0.27-0.16,0.543-0.284,0.808c-0.121,0.254-0.293,0.48-0.516,0.675
			c-0.226,0.198-0.518,0.361-0.868,0.49c-0.351,0.128-0.796,0.193-1.32,0.193c-0.966,0-1.681-0.267-2.188-0.814
			c-0.506-0.547-0.779-1.274-0.812-2.168c-0.023-0.509-0.035-0.992-0.035-1.436c0-0.444,0.012-0.929,0.035-1.439
			C158.45,42.218,158.722,41.487,159.229,40.94z"/>
		<path fill="#FFFFFF" d="M182.158,38.292h-0.71c-0.186,0-0.354,0.072-0.49,0.206c-0.135,0.135-0.204,0.305-0.204,0.49v4.487h-5.62
			v-4.487c0-0.186-0.07-0.354-0.204-0.49c-0.135-0.134-0.305-0.206-0.491-0.206h-0.708c-0.187,0-0.355,0.072-0.491,0.206
			c-0.135,0.135-0.205,0.305-0.205,0.49v11.12c0,0.199,0.072,0.373,0.209,0.502c0.137,0.127,0.301,0.19,0.487,0.19h0.708
			c0.188,0,0.356-0.068,0.491-0.204c0.134-0.134,0.204-0.304,0.204-0.488v-4.626h5.62v4.626c0,0.186,0.069,0.354,0.204,0.488
			c0.135,0.136,0.305,0.204,0.49,0.204h0.71c0.188,0,0.356-0.068,0.49-0.204c0.136-0.134,0.207-0.304,0.207-0.488V38.986
			c0-0.184-0.071-0.353-0.207-0.488C182.516,38.364,182.346,38.292,182.158,38.292z"/>
		<path fill="#FFFFFF" d="M199.065,38.292h-0.689c-0.189,0-0.355,0.072-0.491,0.206c-0.135,0.135-0.206,0.305-0.206,0.49v6.971
			c0,1.058-0.249,1.845-0.738,2.345c-0.494,0.503-1.168,0.748-2.055,0.748c-0.875,0-1.563-0.25-2.045-0.747
			c-0.486-0.499-0.73-1.288-0.73-2.346v-6.971c0-0.186-0.069-0.354-0.204-0.49c-0.134-0.134-0.305-0.206-0.493-0.206h-0.706
			c-0.186,0-0.355,0.072-0.49,0.206c-0.135,0.135-0.204,0.305-0.204,0.49v6.885c0,0.729,0.088,1.407,0.266,2.018
			c0.182,0.62,0.473,1.167,0.866,1.624c0.397,0.463,0.911,0.824,1.53,1.08c0.611,0.251,1.355,0.379,2.211,0.379
			c0.844,0,1.584-0.128,2.194-0.379c0.618-0.255,1.134-0.617,1.529-1.08c0.394-0.457,0.688-1.002,0.875-1.622
			c0.185-0.61,0.279-1.291,0.279-2.02v-6.887c0-0.184-0.071-0.353-0.208-0.489C199.422,38.363,199.251,38.292,199.065,38.292z"/>
		<path fill="#FFFFFF" d="M213.807,45.603c0.645-0.25,1.191-0.637,1.626-1.148c0.498-0.591,0.753-1.388,0.753-2.368
			c0-0.664-0.121-1.244-0.361-1.72c-0.237-0.479-0.566-0.876-0.973-1.184c-0.403-0.304-0.871-0.529-1.399-0.675
			c-0.521-0.142-1.074-0.216-1.659-0.216h-4.179c-0.187,0-0.357,0.072-0.49,0.206c-0.135,0.135-0.206,0.305-0.206,0.49v11.12
			c0,0.188,0.069,0.352,0.206,0.488c0.132,0.136,0.304,0.204,0.49,0.204h0.709c0.186,0,0.356-0.068,0.491-0.204
			c0.136-0.134,0.206-0.304,0.206-0.488v-4.161h2.607l2.437,4.273c0.054,0.097,0.142,0.206,0.265,0.336
			c0.156,0.164,0.384,0.244,0.679,0.244h0.74c0.164,0,0.314-0.061,0.431-0.177c0.117-0.118,0.18-0.267,0.18-0.43
			c0-0.094-0.026-0.191-0.082-0.304L213.807,45.603z M214.084,42.086c0,0.662-0.191,1.121-0.586,1.406
			c-0.414,0.296-1.013,0.447-1.791,0.447h-2.688v-3.639h2.688c0.779,0,1.383,0.14,1.798,0.418
			C213.896,40.979,214.084,41.427,214.084,42.086z"/>
		<path fill="#FFFFFF" d="M225.374,40.94c0.498-0.538,1.234-0.812,2.188-0.812c0.522,0,0.968,0.064,1.319,0.191
			c0.352,0.129,0.645,0.294,0.868,0.491c0.222,0.197,0.396,0.423,0.515,0.674c0.125,0.268,0.222,0.54,0.284,0.796
			c0.032,0.187,0.126,0.336,0.267,0.433c0.132,0.09,0.269,0.135,0.41,0.135h0.791c0.166,0,0.315-0.062,0.431-0.179
			c0.118-0.115,0.181-0.266,0.181-0.438c-0.014-0.401-0.117-0.845-0.311-1.319c-0.194-0.471-0.498-0.921-0.9-1.336
			c-0.406-0.416-0.931-0.766-1.562-1.041c-0.63-0.273-1.401-0.414-2.292-0.414c-0.775,0-1.478,0.125-2.09,0.369
			c-0.614,0.247-1.148,0.59-1.588,1.023c-0.441,0.433-0.785,0.957-1.027,1.558c-0.238,0.595-0.372,1.246-0.396,1.937
			c-0.034,1.022-0.034,2.058,0,3.08c0.023,0.7,0.157,1.356,0.397,1.944c0.24,0.595,0.587,1.115,1.025,1.549
			c0.443,0.434,0.976,0.777,1.588,1.021c0.611,0.245,1.312,0.37,2.09,0.37c0.891,0,1.662-0.141,2.292-0.416
			c0.631-0.272,1.155-0.623,1.562-1.04c0.402-0.414,0.706-0.863,0.9-1.338c0.194-0.47,0.297-0.916,0.311-1.325
			c0-0.164-0.062-0.311-0.181-0.429c-0.116-0.118-0.266-0.179-0.431-0.179h-0.791c-0.142,0-0.277,0.045-0.408,0.134
			c-0.143,0.097-0.236,0.246-0.268,0.42c-0.063,0.27-0.158,0.543-0.285,0.808c-0.119,0.252-0.293,0.48-0.515,0.675
			c-0.224,0.198-0.517,0.361-0.868,0.49c-0.351,0.128-0.793,0.193-1.319,0.193c-0.969,0-1.684-0.267-2.188-0.814
			c-0.508-0.547-0.78-1.274-0.812-2.168c-0.021-0.509-0.034-0.992-0.034-1.436c0-0.444,0.013-0.929,0.034-1.439
			C224.594,42.218,224.866,41.487,225.374,40.94z"/>
		<path fill="#FFFFFF" d="M248.793,38.498c-0.134-0.134-0.306-0.206-0.491-0.206h-0.708c-0.187,0-0.356,0.072-0.491,0.206
			c-0.135,0.135-0.205,0.305-0.205,0.49v4.487h-5.618v-4.487c0-0.186-0.071-0.354-0.206-0.49c-0.134-0.134-0.306-0.206-0.491-0.206
			h-0.706c-0.188,0-0.358,0.072-0.491,0.206c-0.136,0.135-0.206,0.303-0.206,0.49v11.12c0,0.199,0.072,0.374,0.211,0.502
			c0.134,0.125,0.302,0.19,0.486,0.19h0.706c0.188,0,0.357-0.068,0.491-0.204c0.135-0.134,0.206-0.303,0.206-0.488v-4.626h5.618
			v4.626c0,0.186,0.07,0.354,0.205,0.488c0.135,0.136,0.305,0.204,0.491,0.204h0.708c0.189,0,0.356-0.068,0.491-0.204
			c0.136-0.134,0.207-0.304,0.207-0.488V38.986C249,38.803,248.929,38.634,248.793,38.498z"/>
	</g>
</g>
<g>
	<path fill="#FFFFFF" d="M28.735,18.266v7.263c0,2.212,1.8,4.012,4.013,4.012h7.264v-2.5h-7.264c-0.834,0-1.513-0.678-1.513-1.512
		v-7.263L28.735,18.266L28.735,18.266z"/>
	<path fill="#FFFFFF" d="M22.124,27.041H14.86v2.5h7.264c1.067,0,2.073-0.418,2.834-1.178c0.759-0.76,1.177-1.767,1.177-2.834
		l-0.001-7.263h-2.5l0.001,7.263c0,0.401-0.158,0.78-0.445,1.066C22.904,26.883,22.525,27.041,22.124,27.041z"/>
	<path fill="#FFFFFF" d="M51.049,13.949L30.255,1.944c-1.607-0.929-4.033-0.928-5.641,0L3.821,13.95C2.213,14.878,1,16.978,1,18.835
		v24.011c0,1.857,1.213,3.958,2.821,4.888l18.277,10.55c0.978,0.569,2.007,0.622,2.826,0.151c0.814-0.472,1.281-1.391,1.281-2.521
		V35.871c0-2.097-1.705-3.8-3.8-3.8h-7.544v2.5h7.544c0.717,0,1.3,0.582,1.3,1.3v20.043c0,0.192-0.031,0.301-0.026,0.336
		c-0.053-0.008-0.162-0.034-0.329-0.132L5.071,45.565C4.249,45.092,3.5,43.795,3.5,42.845V24.078l22.401-12.933
		c0.803-0.464,2.266-0.464,3.069,0l22.399,12.933v18.768c0,0.95-0.749,2.247-1.57,2.722L31.518,56.12
		c-0.177,0.104-0.29,0.126-0.297,0.156c-0.02-0.043-0.056-0.152-0.056-0.361V35.871c0-0.718,0.583-1.3,1.3-1.3h7.546v-2.5h-7.546
		c-2.095,0-3.8,1.703-3.8,3.8v20.044c0,1.129,0.466,2.047,1.282,2.52c0.367,0.211,0.774,0.318,1.212,0.318
		c0.532,0,1.074-0.158,1.61-0.468l18.279-10.554c1.608-0.929,2.82-3.028,2.82-4.887v-24.01
		C53.869,16.979,52.657,14.878,51.049,13.949z M30.221,8.981c-1.589-0.919-3.983-0.918-5.57,0L3.5,21.191v-2.356
		c0-0.949,0.749-2.246,1.571-2.72L25.865,4.109c0.822-0.475,2.319-0.475,3.141,0l20.793,12.004c0.822,0.476,1.571,1.772,1.571,2.722
		v2.356L30.221,8.981z"/>
</g>
</svg>
