<?xml version="1.0" encoding="utf-8"?>
<!-- Generator: Adobe Illustrator 16.0.4, SVG Export Plug-In . SVG Version: 6.00 Build 0)  -->
<!DOCTYPE svg PUBLIC "-//W3C//DTD SVG 1.1//EN" "http://www.w3.org/Graphics/SVG/1.1/DTD/svg11.dtd">
<svg version="1.1" id="Layer_1" xmlns="http://www.w3.org/2000/svg" xmlns:xlink="http://www.w3.org/1999/xlink" x="0px" y="0px"
	 width="350px" height="325px" viewBox="0 0 350 325" enable-background="new 0 0 350 325" xml:space="preserve">
<g>
	<path fill="#231F20" d="M185.728,57.397v24.144c0,6.579,5.354,11.932,11.934,11.932h24.145v-5.5h-24.145
		c-3.548,0-6.434-2.885-6.434-6.432V57.397H185.728z"/>
	<path fill="#231F20" d="M162.346,87.973h-24.143v5.5h24.143c3.172,0,6.165-1.243,8.43-3.502c2.257-2.259,3.501-5.252,3.501-8.43
		l-0.004-24.144l-5.5,0.001l0.004,24.143c0,1.708-0.672,3.321-1.889,4.539C165.664,87.3,164.051,87.973,162.346,87.973z"/>
	<path fill="#231F20" d="M257.796,44.267L188.674,4.361c-4.861-2.808-12.481-2.809-17.346,0l-69.123,39.908
		c-4.864,2.808-8.674,9.407-8.674,15.022v79.814c0,5.617,3.81,12.216,8.674,15.024l60.763,35.079
		c1.586,0.917,3.168,1.379,4.654,1.379c1.184-0.001,2.307-0.293,3.324-0.881c2.296-1.324,3.56-3.866,3.56-7.159l-0.003-66.628
		c0-6.19-5.036-11.227-11.226-11.227h-25.079v5.5h25.079c3.157,0,5.726,2.569,5.726,5.727l0.003,66.628
		c0,1.208-0.302,2.103-0.81,2.396c-0.507,0.294-1.433,0.107-2.477-0.497l-60.765-35.08c-3.156-1.821-5.924-6.616-5.924-10.261
		V75.907l75.165-43.396c3.092-1.788,8.518-1.789,11.61,0l75.163,43.394v63.199c0,3.646-2.768,8.44-5.923,10.261l-60.76,35.082
		c-1.024,0.59-1.993,0.775-2.479,0.501c-0.508-0.295-0.812-1.192-0.812-2.4V115.92c0-3.158,2.568-5.727,5.725-5.727h25.082v-5.5
		H196.72c-6.189,0-11.225,5.036-11.225,11.227v66.629c0,3.288,1.262,5.83,3.567,7.166c2.267,1.298,5.144,1.126,7.971-0.502
		l60.762-35.083c4.864-2.806,8.674-9.406,8.674-15.024V59.289C266.469,53.673,262.659,47.074,257.796,44.267z M188.558,27.75
		c-4.795-2.774-12.313-2.776-17.113-0.001L99.031,69.557V59.291c0-3.644,2.768-8.438,5.924-10.259l69.123-39.908
		c3.156-1.822,8.691-1.821,11.846,0l69.122,39.907c3.155,1.821,5.923,6.615,5.923,10.259v10.267L188.558,27.75z"/>
</g>
<g>
	<path d="M24.682,271.368c-0.423,0-0.777-0.143-1.062-0.428c-0.287-0.285-0.537-0.592-0.747-0.924L8.165,247.962v22.188
		c0,0.334-0.122,0.617-0.362,0.859c-0.242,0.24-0.527,0.359-0.858,0.359H5.088c-0.332,0-0.619-0.119-0.859-0.359
		c-0.242-0.242-0.362-0.525-0.362-0.859v-29.133c0-0.33,0.12-0.615,0.362-0.857c0.24-0.24,0.527-0.359,0.859-0.359h1.583
		c0.423,0,0.778,0.143,1.065,0.426c0.285,0.287,0.533,0.596,0.746,0.926l14.707,22.055v-22.189c0-0.33,0.119-0.615,0.361-0.857
		c0.24-0.24,0.527-0.359,0.859-0.359h1.855c0.331,0,0.617,0.119,0.859,0.359c0.24,0.242,0.363,0.527,0.363,0.857v29.133
		c0,0.334-0.123,0.617-0.363,0.859c-0.242,0.24-0.528,0.359-0.859,0.359H24.682z"/>
	<path d="M45.406,251.571c0.029-1.684,0.323-3.27,0.883-4.76c0.559-1.488,1.365-2.781,2.421-3.881
		c1.056-1.092,2.352-1.967,3.892-2.613c1.537-0.645,3.303-0.969,5.293-0.969c1.992,0,3.756,0.324,5.295,0.969
		c1.539,0.646,2.836,1.521,3.891,2.613c1.057,1.1,1.863,2.393,2.422,3.881c0.559,1.49,0.854,3.076,0.883,4.76
		c0.091,2.674,0.091,5.352,0,8.025c-0.061,1.686-0.369,3.271-0.928,4.758c-0.558,1.488-1.365,2.789-2.42,3.9
		c-1.057,1.113-2.346,1.986-3.869,2.617c-1.525,0.633-3.281,0.947-5.273,0.947c-1.99,0-3.748-0.314-5.271-0.947
		c-1.523-0.631-2.812-1.504-3.869-2.617c-1.056-1.111-1.862-2.412-2.42-3.9c-0.559-1.486-0.867-3.072-0.928-4.758
		C45.316,256.923,45.316,254.245,45.406,251.571z M66.086,251.796c-0.061-1.414-0.294-2.646-0.701-3.699
		c-0.408-1.053-0.973-1.924-1.697-2.617c-0.723-0.689-1.577-1.207-2.557-1.555c-0.98-0.344-2.06-0.52-3.236-0.52
		c-1.176,0-2.254,0.176-3.234,0.52c-0.98,0.348-1.833,0.865-2.557,1.555c-0.725,0.693-1.299,1.564-1.721,2.617
		s-0.646,2.285-0.678,3.699c-0.062,1.354-0.092,2.613-0.092,3.789c0,1.17,0.03,2.436,0.092,3.785
		c0.031,1.416,0.256,2.646,0.678,3.701c0.422,1.053,0.996,1.924,1.721,2.615c0.724,0.689,1.576,1.209,2.557,1.555
		c0.98,0.348,2.059,0.52,3.234,0.52c1.177,0,2.256-0.172,3.236-0.52c0.979-0.346,1.834-0.865,2.557-1.555
		c0.725-0.691,1.289-1.562,1.697-2.615c0.407-1.055,0.641-2.285,0.701-3.701c0.06-1.35,0.09-2.615,0.09-3.785
		C66.176,254.409,66.146,253.149,66.086,251.796z"/>
	<path d="M100.478,239.8c1.478,0,2.871,0.178,4.185,0.539c1.312,0.361,2.467,0.92,3.463,1.668c0.996,0.754,1.786,1.715,2.375,2.887
		c0.589,1.174,0.881,2.588,0.881,4.242c0,2.436-0.607,4.373-1.83,5.816c-1.225,1.443-2.785,2.465-4.685,3.068l6.833,11.859
		c0.092,0.182,0.137,0.346,0.137,0.496c0,0.271-0.098,0.502-0.293,0.697c-0.2,0.197-0.432,0.295-0.703,0.295h-1.945
		c-0.605,0-1.049-0.15-1.336-0.453c-0.287-0.299-0.49-0.555-0.611-0.766l-6.561-11.498h-7.783v11.498
		c0,0.334-0.121,0.617-0.361,0.859c-0.242,0.24-0.527,0.359-0.861,0.359h-1.854c-0.331,0-0.618-0.119-0.859-0.359
		c-0.242-0.242-0.362-0.525-0.362-0.859v-29.133c0-0.33,0.12-0.615,0.362-0.857c0.241-0.24,0.528-0.359,0.859-0.359H100.478z
		 M92.604,254.591h7.646c2.172,0,3.854-0.426,5.046-1.285c1.19-0.857,1.786-2.246,1.786-4.17c0-1.926-0.596-3.285-1.786-4.082
		c-1.191-0.795-2.874-1.197-5.046-1.197h-7.646V254.591z"/>
	<path d="M148.26,239.8c0.334,0,0.62,0.119,0.862,0.359c0.24,0.242,0.364,0.527,0.364,0.857v1.623c0,0.33-0.124,0.619-0.364,0.857
		c-0.242,0.24-0.528,0.359-0.862,0.359h-8.46v26.293c0,0.334-0.12,0.617-0.361,0.859c-0.241,0.24-0.53,0.359-0.86,0.359h-1.855
		c-0.331,0-0.619-0.119-0.861-0.359c-0.24-0.242-0.361-0.525-0.361-0.859v-26.293h-8.461c-0.334,0-0.619-0.119-0.859-0.359
		c-0.242-0.238-0.361-0.527-0.361-0.857v-1.623c0-0.33,0.119-0.615,0.361-0.857c0.24-0.24,0.525-0.359,0.859-0.359H148.26z"/>
	<path d="M189.034,239.8c0.33,0,0.619,0.119,0.855,0.359c0.243,0.242,0.366,0.527,0.366,0.857v29.133
		c0,0.334-0.123,0.617-0.366,0.859c-0.236,0.24-0.525,0.359-0.855,0.359h-1.856c-0.334,0-0.619-0.119-0.86-0.359
		c-0.242-0.242-0.361-0.525-0.361-0.859v-12.717h-15.931v12.717c0,0.334-0.121,0.617-0.361,0.859
		c-0.24,0.24-0.526,0.359-0.861,0.359h-1.855c-0.33,0-0.615-0.113-0.855-0.338s-0.362-0.52-0.362-0.881v-29.133
		c0-0.33,0.122-0.615,0.362-0.857c0.24-0.24,0.525-0.359,0.855-0.359h1.855c0.335,0,0.621,0.119,0.861,0.359
		c0.24,0.242,0.361,0.527,0.361,0.857v12.357h15.931v-12.357c0-0.33,0.119-0.615,0.361-0.857c0.241-0.24,0.526-0.359,0.86-0.359
		H189.034z"/>
	<path d="M228.992,267.31c0.329,0,0.614,0.119,0.855,0.359c0.24,0.242,0.365,0.527,0.365,0.859v1.621
		c0,0.334-0.125,0.617-0.365,0.859c-0.241,0.24-0.526,0.359-0.855,0.359h-18.42c-0.331,0-0.62-0.119-0.861-0.359
		c-0.241-0.242-0.361-0.525-0.361-0.859v-29.133c0-0.33,0.12-0.615,0.361-0.857c0.241-0.24,0.53-0.359,0.861-0.359h1.854
		c0.33,0,0.621,0.119,0.86,0.359c0.241,0.242,0.362,0.527,0.362,0.857v26.293H228.992z"/>
	<path d="M265.598,264.243h-15.702l-2.355,5.998c-0.089,0.242-0.254,0.488-0.497,0.742c-0.242,0.258-0.662,0.385-1.264,0.385h-1.677
		c-0.273,0-0.507-0.098-0.702-0.295c-0.196-0.195-0.293-0.426-0.293-0.697c0-0.15,0.058-0.359,0.183-0.631l11.083-28.457
		c0.151-0.332,0.379-0.66,0.679-0.994c0.303-0.33,0.754-0.494,1.36-0.494h2.711c0.606,0,1.056,0.164,1.362,0.494
		c0.299,0.334,0.525,0.662,0.678,0.994l11.041,28.457c0.12,0.271,0.18,0.48,0.18,0.631c0,0.271-0.097,0.502-0.292,0.697
		c-0.197,0.197-0.432,0.295-0.703,0.295h-1.672c-0.605,0-1.031-0.127-1.268-0.385c-0.245-0.254-0.41-0.5-0.499-0.742
		L265.598,264.243z M251.479,260.183h12.534l-6.245-16.1L251.479,260.183z"/>
	<path d="M295.009,254.907l15.432,14.656c0.182,0.182,0.3,0.34,0.36,0.473c0.063,0.139,0.091,0.25,0.091,0.34
		c0,0.271-0.097,0.502-0.294,0.697c-0.195,0.197-0.43,0.295-0.701,0.295h-2.806c-0.423,0-0.769-0.082-1.038-0.248
		c-0.273-0.164-0.468-0.309-0.59-0.428l-12.806-12.178v11.635c0,0.334-0.121,0.617-0.363,0.859c-0.243,0.24-0.526,0.359-0.861,0.359
		h-1.852c-0.333,0-0.62-0.119-0.859-0.359c-0.243-0.242-0.363-0.525-0.363-0.859v-29.133c0-0.33,0.12-0.615,0.363-0.857
		c0.239-0.24,0.526-0.359,0.859-0.359h1.852c0.335,0,0.618,0.119,0.861,0.359c0.242,0.242,0.363,0.527,0.363,0.857v10.508
		l12.083-11.049c0.117-0.121,0.314-0.262,0.588-0.428c0.27-0.168,0.616-0.248,1.04-0.248h2.622c0.273,0,0.507,0.098,0.703,0.293
		c0.195,0.193,0.295,0.428,0.295,0.697c0,0.092-0.031,0.203-0.092,0.34c-0.062,0.137-0.18,0.291-0.36,0.473L295.009,254.907z"/>
	<path d="M346.281,267.31c0.33,0,0.616,0.119,0.858,0.359c0.239,0.242,0.36,0.527,0.36,0.859v1.621c0,0.334-0.121,0.617-0.36,0.859
		c-0.242,0.24-0.528,0.359-0.858,0.359h-18.283c-0.331,0-0.618-0.119-0.859-0.359c-0.242-0.242-0.361-0.525-0.361-0.859v-29.133
		c0-0.33,0.119-0.615,0.361-0.857c0.241-0.24,0.528-0.359,0.859-0.359h17.918c0.334,0,0.62,0.119,0.86,0.359
		c0.243,0.242,0.363,0.527,0.363,0.857v1.623c0,0.33-0.12,0.619-0.363,0.857c-0.24,0.24-0.526,0.359-0.86,0.359h-14.842v9.518
		h13.847c0.329,0,0.619,0.119,0.861,0.359c0.24,0.242,0.36,0.527,0.36,0.857v1.621c0,0.334-0.12,0.619-0.36,0.859
		c-0.242,0.242-0.532,0.361-0.861,0.361h-13.847v9.877H346.281z"/>
	<g>
		<path d="M18.511,308.622c0.052-0.037,0.104-0.078,0.161-0.117c0.332-0.246,0.666-0.582,0.992-0.996
			c0.326-0.422,0.613-0.936,0.852-1.537c0.244-0.617,0.369-1.332,0.369-2.133c0-0.629-0.127-1.35-0.378-2.137
			c-0.258-0.803-0.694-1.557-1.299-2.244c-0.605-0.689-1.423-1.275-2.427-1.74c-1.01-0.463-2.285-0.701-3.797-0.701H3.871
			c-0.369,0-0.701,0.141-0.965,0.404c-0.266,0.262-0.406,0.594-0.406,0.961v21.895c0,0.365,0.141,0.699,0.406,0.965
			c0.264,0.266,0.598,0.404,0.966,0.404h9.608c1.282,0,2.438-0.213,3.43-0.629c0.995-0.416,1.838-0.982,2.502-1.682
			c0.664-0.693,1.172-1.484,1.508-2.354c0.338-0.861,0.51-1.762,0.51-2.672c0-1.371-0.354-2.592-1.046-3.621
			C19.838,309.876,19.209,309.188,18.511,308.622z M17.294,314.31c0,0.459-0.087,0.889-0.255,1.283
			c-0.169,0.395-0.426,0.75-0.763,1.07c-0.34,0.312-0.774,0.568-1.291,0.75c-0.528,0.184-1.149,0.275-1.845,0.275H6.636v-6.822
			h6.505c0.739,0,1.379,0.102,1.906,0.293c0.519,0.195,0.949,0.451,1.276,0.768c0.324,0.312,0.569,0.678,0.726,1.088
			C17.212,313.435,17.294,313.874,17.294,314.31z M6.636,306.913v-5.945h6.009c1.408,0,2.465,0.264,3.141,0.787
			c0.647,0.502,0.964,1.219,0.964,2.188c0,0.965-0.316,1.682-0.964,2.184c-0.676,0.521-1.732,0.787-3.141,0.787H6.636z"/>
		<path d="M37.301,297.017h-1.396c-0.366,0-0.701,0.141-0.966,0.404c-0.265,0.262-0.404,0.594-0.404,0.961v21.895
			c0,0.365,0.14,0.699,0.404,0.965s0.599,0.404,0.966,0.404h1.396c0.365,0,0.699-0.139,0.965-0.404s0.404-0.6,0.404-0.965v-21.895
			c0-0.363-0.139-0.697-0.405-0.961C38,297.153,37.666,297.017,37.301,297.017z"/>
		<path d="M68.977,308.622c0.051-0.037,0.105-0.078,0.162-0.117c0.33-0.246,0.664-0.582,0.992-0.996
			c0.327-0.422,0.613-0.939,0.854-1.537c0.243-0.617,0.367-1.332,0.367-2.133c0-0.629-0.129-1.35-0.379-2.137
			c-0.257-0.803-0.694-1.557-1.298-2.244c-0.607-0.689-1.425-1.275-2.431-1.74c-1.006-0.463-2.283-0.701-3.793-0.701h-9.115
			c-0.365,0-0.701,0.141-0.965,0.404c-0.266,0.262-0.404,0.594-0.404,0.961v21.895c0,0.365,0.139,0.699,0.406,0.965
			c0.262,0.266,0.599,0.404,0.967,0.404h9.607c1.283,0,2.435-0.213,3.428-0.629c0.997-0.416,1.837-0.982,2.504-1.682
			c0.664-0.697,1.172-1.484,1.509-2.354c0.336-0.861,0.507-1.762,0.507-2.672c0-1.371-0.352-2.592-1.045-3.621
			C70.304,309.876,69.677,309.188,68.977,308.622z M67.759,314.31c0,0.459-0.085,0.889-0.255,1.283
			c-0.166,0.395-0.424,0.75-0.762,1.07c-0.34,0.312-0.773,0.568-1.29,0.75c-0.528,0.184-1.151,0.275-1.845,0.275h-6.506v-6.822
			h6.506c0.738,0,1.379,0.102,1.904,0.293c0.521,0.195,0.949,0.451,1.277,0.768c0.324,0.312,0.568,0.678,0.728,1.088
			C67.677,313.435,67.759,313.874,67.759,314.31z M57.102,306.913v-5.945h6.008c1.408,0,2.467,0.264,3.143,0.787
			c0.647,0.502,0.963,1.219,0.963,2.188c0,0.965-0.315,1.682-0.963,2.184c-0.676,0.521-1.733,0.787-3.143,0.787H57.102z"/>
		<path d="M100.212,317.688H89.135v-19.307c0-0.367-0.139-0.697-0.404-0.961c-0.265-0.268-0.598-0.404-0.965-0.404h-1.395
			c-0.367,0-0.703,0.141-0.966,0.404c-0.267,0.262-0.404,0.594-0.404,0.961v21.895c0,0.373,0.134,0.697,0.403,0.965
			c0.264,0.266,0.598,0.404,0.967,0.404h13.841c0.366,0,0.7-0.139,0.966-0.404s0.405-0.6,0.405-0.965v-1.217
			c0-0.369-0.14-0.701-0.405-0.967C100.912,317.829,100.575,317.688,100.212,317.688z"/>
		<path d="M128.706,317.688h-10.972v-6.52h9.955c0.371,0,0.7-0.135,0.966-0.4c0.266-0.262,0.407-0.598,0.407-0.963v-1.225
			c0-0.361-0.142-0.695-0.407-0.961c-0.266-0.262-0.599-0.4-0.966-0.4h-9.955v-6.252h10.704c0.365,0,0.7-0.137,0.966-0.404
			c0.264-0.262,0.402-0.594,0.402-0.961v-1.221c0-0.367-0.139-0.699-0.402-0.961c-0.266-0.264-0.601-0.404-0.966-0.404H114.97
			c-0.365,0-0.7,0.141-0.964,0.404c-0.268,0.262-0.408,0.594-0.408,0.961v21.895c0,0.365,0.141,0.703,0.408,0.965
			c0.259,0.266,0.596,0.404,0.964,0.404h13.736c0.37,0,0.704-0.139,0.97-0.404c0.268-0.266,0.404-0.6,0.404-0.965v-1.217
			c0-0.369-0.137-0.701-0.404-0.967C129.41,317.829,129.076,317.688,128.706,317.688z"/>
		<path d="M170.732,302.229c0.98-1.062,2.433-1.602,4.309-1.602c1.031,0,1.906,0.129,2.599,0.379
			c0.691,0.256,1.265,0.576,1.709,0.969c0.438,0.385,0.779,0.834,1.014,1.324c0.246,0.525,0.434,1.064,0.561,1.568
			c0.064,0.367,0.246,0.66,0.525,0.852c0.26,0.174,0.528,0.266,0.8,0.266h1.566c0.323,0,0.615-0.121,0.848-0.354
			c0.229-0.23,0.354-0.521,0.354-0.857c-0.024-0.795-0.229-1.67-0.614-2.598c-0.383-0.93-0.979-1.814-1.777-2.635
			c-0.798-0.818-1.829-1.508-3.067-2.049c-1.243-0.541-2.762-0.816-4.517-0.816c-1.523,0-2.91,0.244-4.117,0.729
			c-1.204,0.486-2.257,1.158-3.122,2.012c-0.868,0.855-1.549,1.885-2.022,3.068c-0.475,1.174-0.734,2.457-0.779,3.812
			c-0.069,2.014-0.069,4.051,0,6.064c0.045,1.381,0.305,2.672,0.779,3.83c0.474,1.172,1.154,2.197,2.022,3.051
			c0.868,0.852,1.921,1.527,3.122,2.012c1.207,0.48,2.594,0.727,4.117,0.727c1.755,0,3.273-0.275,4.517-0.816
			c1.238-0.539,2.27-1.229,3.067-2.045c0.799-0.818,1.395-1.707,1.777-2.639c0.385-0.926,0.59-1.801,0.614-2.607
			c0-0.324-0.126-0.615-0.354-0.848c-0.235-0.232-0.528-0.352-0.848-0.352h-1.566c-0.271,0-0.54,0.088-0.8,0.268
			c-0.279,0.191-0.461,0.484-0.523,0.824c-0.129,0.529-0.316,1.066-0.562,1.59c-0.236,0.498-0.575,0.943-1.014,1.33
			c-0.444,0.385-1.018,0.713-1.709,0.965c-0.692,0.25-1.567,0.377-2.599,0.377c-1.904,0-3.312-0.521-4.309-1.602
			c-0.996-1.076-1.534-2.51-1.596-4.27c-0.049-1.002-0.069-1.955-0.069-2.824c0-0.875,0.021-1.828,0.069-2.834
			C169.198,304.743,169.736,303.306,170.732,302.229z"/>
		<path d="M215.883,297.017h-1.396c-0.367,0-0.698,0.141-0.964,0.404c-0.268,0.262-0.403,0.594-0.403,0.961v8.838h-11.067v-8.838
			c0-0.363-0.138-0.697-0.401-0.961c-0.267-0.264-0.601-0.404-0.971-0.404h-1.392c-0.368,0-0.699,0.141-0.966,0.404
			c-0.265,0.262-0.406,0.594-0.406,0.961v21.895c0,0.396,0.145,0.736,0.414,0.992c0.269,0.248,0.59,0.377,0.958,0.377h1.392
			c0.37,0,0.704-0.139,0.971-0.404c0.264-0.266,0.401-0.6,0.401-0.965v-9.107h11.067v9.107c0,0.365,0.136,0.699,0.403,0.965
			c0.266,0.266,0.597,0.404,0.964,0.404h1.396c0.368,0,0.703-0.139,0.965-0.404c0.267-0.266,0.406-0.6,0.406-0.965v-21.895
			c0-0.363-0.14-0.697-0.406-0.961C216.586,297.157,216.251,297.017,215.883,297.017z"/>
		<path d="M249.174,297.017h-1.357c-0.373,0-0.701,0.141-0.967,0.404c-0.268,0.262-0.407,0.594-0.407,0.961v13.727
			c0,2.082-0.489,3.637-1.451,4.613c-0.974,0.994-2.301,1.477-4.046,1.477c-1.725,0-3.08-0.492-4.027-1.471
			c-0.955-0.982-1.438-2.537-1.438-4.619v-13.727c0-0.363-0.136-0.697-0.403-0.961c-0.264-0.264-0.598-0.404-0.97-0.404h-1.391
			c-0.366,0-0.702,0.141-0.966,0.404c-0.265,0.262-0.404,0.594-0.404,0.961v13.561c0,1.43,0.176,2.77,0.525,3.971
			c0.357,1.221,0.931,2.297,1.705,3.199c0.783,0.91,1.794,1.621,3.014,2.125c1.206,0.494,2.672,0.744,4.355,0.744
			c1.659,0,3.116-0.25,4.321-0.744c1.216-0.5,2.23-1.215,3.009-2.125c0.775-0.902,1.356-1.975,1.725-3.193
			c0.361-1.205,0.549-2.543,0.549-3.977v-13.561c0-0.363-0.143-0.697-0.41-0.961C249.877,297.153,249.541,297.017,249.174,297.017z"
			/>
		<path d="M278.2,311.407c1.272-0.494,2.349-1.25,3.203-2.262c0.983-1.162,1.483-2.73,1.483-4.662c0-1.309-0.238-2.451-0.711-3.391
			c-0.472-0.938-1.117-1.723-1.918-2.324c-0.793-0.6-1.714-1.047-2.754-1.328c-1.024-0.283-2.117-0.424-3.268-0.424h-8.227
			c-0.37,0-0.706,0.141-0.967,0.404c-0.267,0.262-0.407,0.594-0.407,0.961v21.895c0,0.373,0.138,0.697,0.407,0.965
			c0.261,0.266,0.597,0.404,0.967,0.404h1.392c0.369,0,0.703-0.139,0.968-0.404c0.269-0.266,0.406-0.6,0.406-0.965v-8.191h5.136
			l4.796,8.412c0.108,0.195,0.281,0.412,0.522,0.664c0.308,0.322,0.754,0.484,1.338,0.484h1.456c0.324,0,0.618-0.123,0.85-0.354
			c0.229-0.229,0.354-0.521,0.354-0.844c0-0.186-0.054-0.377-0.163-0.6L278.2,311.407z M278.749,304.483
			c0,1.303-0.378,2.207-1.155,2.77c-0.814,0.586-1.996,0.883-3.525,0.883h-5.293v-7.168h5.293c1.533,0,2.724,0.277,3.541,0.824
			C278.375,302.304,278.749,303.185,278.749,304.483z"/>
		<path d="M300.977,302.229c0.983-1.062,2.434-1.602,4.31-1.602c1.029,0,1.906,0.129,2.599,0.379c0.691,0.256,1.27,0.576,1.71,0.969
			c0.437,0.385,0.778,0.834,1.013,1.324c0.244,0.525,0.436,1.064,0.561,1.568c0.063,0.367,0.246,0.66,0.525,0.852
			c0.26,0.174,0.527,0.266,0.805,0.266h1.561c0.323,0,0.621-0.121,0.849-0.354c0.229-0.23,0.354-0.521,0.354-0.857
			c-0.029-0.795-0.23-1.67-0.613-2.598c-0.385-0.932-0.979-1.816-1.773-2.635c-0.801-0.818-1.832-1.508-3.074-2.049
			c-1.241-0.541-2.762-0.816-4.515-0.816c-1.524,0-2.911,0.244-4.114,0.729c-1.21,0.486-2.259,1.158-3.127,2.012
			c-0.868,0.855-1.547,1.885-2.021,3.068c-0.47,1.17-0.732,2.453-0.779,3.812c-0.069,2.014-0.069,4.051,0,6.064
			c0.047,1.381,0.31,2.672,0.781,3.83c0.473,1.172,1.154,2.197,2.02,3.051c0.871,0.852,1.921,1.527,3.127,2.012
			c1.203,0.48,2.586,0.727,4.114,0.727c1.753,0,3.273-0.275,4.515-0.816c1.242-0.539,2.273-1.229,3.074-2.045
			c0.794-0.818,1.389-1.707,1.773-2.639c0.383-0.926,0.584-1.801,0.613-2.607c0-0.324-0.125-0.615-0.354-0.846
			c-0.229-0.234-0.525-0.354-0.849-0.354h-1.561c-0.277,0-0.545,0.088-0.8,0.268c-0.284,0.188-0.467,0.484-0.527,0.824
			c-0.128,0.529-0.315,1.066-0.563,1.59c-0.234,0.496-0.576,0.943-1.013,1.33c-0.44,0.385-1.019,0.713-1.71,0.965
			c-0.692,0.25-1.564,0.377-2.599,0.377c-1.907,0-3.314-0.521-4.31-1.602c-0.997-1.076-1.533-2.51-1.595-4.27
			c-0.045-1.002-0.07-1.955-0.07-2.824c0-0.875,0.025-1.828,0.07-2.834C299.443,304.743,299.979,303.306,300.977,302.229z"/>
		<path d="M347.093,297.421c-0.265-0.264-0.601-0.404-0.965-0.404h-1.396c-0.366,0-0.701,0.141-0.965,0.404
			c-0.267,0.262-0.406,0.594-0.406,0.961v8.838h-11.063v-8.838c0-0.367-0.141-0.699-0.403-0.961
			c-0.264-0.264-0.601-0.404-0.969-0.404h-1.393c-0.367,0-0.704,0.141-0.964,0.404c-0.268,0.262-0.407,0.594-0.407,0.961v21.895
			c0,0.396,0.143,0.74,0.414,0.992c0.264,0.246,0.596,0.377,0.957,0.377h1.393c0.368,0,0.705-0.139,0.969-0.404
			c0.263-0.266,0.403-0.6,0.403-0.965v-9.107h11.063v9.107c0,0.365,0.14,0.699,0.406,0.965c0.264,0.266,0.599,0.404,0.965,0.404
			h1.396c0.368,0,0.7-0.139,0.965-0.404c0.267-0.266,0.407-0.6,0.407-0.965v-21.895C347.5,298.019,347.359,297.685,347.093,297.421z
			"/>
	</g>
</g>
</svg>
