<?xml version="1.0" encoding="utf-8"?>
<!-- Generator: Adobe Illustrator 16.0.4, SVG Export Plug-In . SVG Version: 6.00 Build 0)  -->
<!DOCTYPE svg PUBLIC "-//W3C//DTD SVG 1.1//EN" "http://www.w3.org/Graphics/SVG/1.1/DTD/svg11.dtd">
<svg version="1.1" id="Layer_1" xmlns="http://www.w3.org/2000/svg" xmlns:xlink="http://www.w3.org/1999/xlink" x="0px" y="0px"
	 width="280px" height="60px" viewBox="0 0 280 60" enable-background="new 0 0 280 60" xml:space="preserve">
<g>
	<path d="M92.231,24.589c-0.246,0-0.451-0.083-0.617-0.249c-0.167-0.166-0.312-0.345-0.434-0.536l-8.538-12.804v12.881
		c0,0.192-0.07,0.358-0.21,0.499c-0.141,0.139-0.307,0.208-0.499,0.208h-1.077c-0.193,0-0.359-0.069-0.499-0.208
		c-0.141-0.14-0.21-0.306-0.21-0.499V6.969c0-0.192,0.07-0.357,0.21-0.498c0.14-0.139,0.306-0.208,0.499-0.208h0.919
		c0.246,0,0.451,0.082,0.618,0.249c0.166,0.166,0.31,0.345,0.433,0.537l8.538,12.803V6.969c0-0.192,0.069-0.357,0.21-0.498
		c0.14-0.139,0.306-0.208,0.499-0.208h1.077c0.192,0,0.358,0.069,0.499,0.208c0.14,0.141,0.21,0.306,0.21,0.498v16.914
		c0,0.192-0.071,0.358-0.21,0.499c-0.141,0.139-0.307,0.208-0.499,0.208H92.231z"/>
	<path d="M104.262,13.096c0.018-0.977,0.188-1.898,0.513-2.763c0.324-0.863,0.792-1.614,1.406-2.252
		c0.612-0.636,1.365-1.143,2.259-1.518C109.333,6.188,110.357,6,111.513,6c1.157,0,2.18,0.188,3.074,0.563
		c0.893,0.375,1.646,0.882,2.259,1.518c0.613,0.638,1.082,1.389,1.406,2.252c0.324,0.864,0.495,1.786,0.513,2.763
		c0.052,1.553,0.052,3.107,0,4.66c-0.036,0.978-0.215,1.898-0.539,2.763c-0.324,0.863-0.792,1.619-1.405,2.264
		c-0.614,0.646-1.362,1.153-2.247,1.519c-0.885,0.367-1.904,0.549-3.061,0.549c-1.156,0-2.176-0.183-3.06-0.549
		c-0.885-0.366-1.633-0.873-2.247-1.519c-0.613-0.645-1.081-1.401-1.405-2.264c-0.325-0.864-0.504-1.785-0.539-2.763
		C104.21,16.203,104.21,14.649,104.262,13.096z M116.268,13.227c-0.035-0.821-0.17-1.536-0.407-2.148
		c-0.236-0.611-0.564-1.117-0.985-1.519c-0.42-0.4-0.916-0.702-1.484-0.902c-0.569-0.201-1.196-0.302-1.879-0.302
		c-0.682,0-1.309,0.101-1.878,0.302c-0.569,0.2-1.064,0.502-1.484,0.902c-0.42,0.402-0.753,0.908-0.999,1.519
		c-0.245,0.612-0.376,1.327-0.394,2.148c-0.036,0.785-0.053,1.518-0.053,2.199c0,0.68,0.018,1.414,0.053,2.199
		c0.018,0.821,0.149,1.537,0.394,2.148c0.245,0.611,0.578,1.116,0.999,1.518s0.915,0.703,1.484,0.903s1.196,0.301,1.878,0.301
		c0.683,0,1.31-0.101,1.879-0.301c0.569-0.201,1.064-0.501,1.484-0.903s0.749-0.907,0.985-1.518
		c0.237-0.611,0.372-1.327,0.407-2.148c0.035-0.785,0.052-1.519,0.052-2.199C116.32,14.745,116.303,14.012,116.268,13.227z"/>
	<path d="M136.234,6.262c0.858,0,1.667,0.104,2.43,0.313c0.761,0.21,1.432,0.534,2.009,0.969c0.579,0.438,1.038,0.995,1.379,1.676
		s0.512,1.502,0.512,2.461c0,1.414-0.354,2.539-1.062,3.377c-0.71,0.838-1.617,1.431-2.72,1.781l3.967,6.886
		c0.053,0.104,0.079,0.2,0.079,0.288c0,0.158-0.057,0.292-0.17,0.405c-0.116,0.114-0.251,0.17-0.408,0.17h-1.13
		c-0.35,0-0.609-0.086-0.775-0.262c-0.166-0.174-0.284-0.323-0.354-0.445l-3.81-6.676h-4.518v6.676c0,0.192-0.07,0.358-0.21,0.499
		c-0.14,0.139-0.306,0.208-0.499,0.208h-1.077c-0.192,0-0.359-0.069-0.499-0.208c-0.14-0.14-0.21-0.306-0.21-0.499V6.969
		c0-0.192,0.07-0.357,0.21-0.498c0.14-0.139,0.307-0.208,0.499-0.208H136.234z M131.663,14.849h4.439
		c1.261,0,2.237-0.248,2.929-0.746c0.691-0.497,1.038-1.303,1.038-2.421c0-1.117-0.346-1.906-1.038-2.37
		c-0.692-0.462-1.668-0.694-2.929-0.694h-4.439V14.849z"/>
	<path d="M163.975,6.262c0.193,0,0.359,0.069,0.5,0.208c0.14,0.141,0.211,0.306,0.211,0.498v0.942c0,0.192-0.071,0.359-0.211,0.498
		c-0.141,0.14-0.307,0.209-0.5,0.209h-4.912v15.264c0,0.192-0.07,0.358-0.21,0.499c-0.14,0.139-0.308,0.208-0.499,0.208h-1.077
		c-0.192,0-0.36-0.069-0.5-0.208c-0.14-0.14-0.21-0.306-0.21-0.499V8.618h-4.912c-0.193,0-0.359-0.07-0.499-0.209
		c-0.141-0.139-0.21-0.306-0.21-0.498V6.969c0-0.192,0.069-0.357,0.21-0.498c0.14-0.139,0.306-0.208,0.499-0.208H163.975z"/>
	<path d="M187.646,6.262c0.191,0,0.359,0.069,0.497,0.208c0.141,0.141,0.212,0.306,0.212,0.498v16.914
		c0,0.192-0.071,0.358-0.212,0.499c-0.138,0.139-0.306,0.208-0.497,0.208h-1.077c-0.194,0-0.36-0.069-0.5-0.208
		c-0.14-0.14-0.21-0.306-0.21-0.499V16.5h-9.248v7.383c0,0.192-0.07,0.358-0.21,0.499c-0.14,0.139-0.306,0.208-0.5,0.208h-1.077
		c-0.191,0-0.357-0.065-0.497-0.196c-0.14-0.131-0.21-0.301-0.21-0.511V6.969c0-0.192,0.07-0.357,0.21-0.498
		c0.14-0.139,0.306-0.208,0.497-0.208h1.077c0.194,0,0.36,0.069,0.5,0.208c0.14,0.141,0.21,0.306,0.21,0.498v7.174h9.248V6.969
		c0-0.192,0.07-0.357,0.21-0.498c0.14-0.139,0.306-0.208,0.5-0.208H187.646z"/>
	<path d="M210.843,22.233c0.191,0,0.357,0.07,0.497,0.209c0.14,0.141,0.212,0.306,0.212,0.498v0.942
		c0,0.192-0.072,0.358-0.212,0.499c-0.14,0.139-0.306,0.208-0.497,0.208h-10.693c-0.192,0-0.36-0.069-0.5-0.208
		c-0.14-0.14-0.21-0.306-0.21-0.499V6.969c0-0.192,0.07-0.357,0.21-0.498c0.14-0.139,0.308-0.208,0.5-0.208h1.077
		c0.191,0,0.359,0.069,0.499,0.208c0.14,0.141,0.21,0.306,0.21,0.498v15.265H210.843z"/>
	<path d="M232.095,20.453h-9.116l-1.367,3.483c-0.052,0.139-0.147,0.284-0.289,0.431c-0.141,0.149-0.384,0.223-0.733,0.223h-0.974
		c-0.158,0-0.294-0.057-0.407-0.17c-0.114-0.113-0.17-0.248-0.17-0.405c0-0.087,0.033-0.209,0.105-0.367l6.435-16.52
		c0.088-0.192,0.22-0.384,0.394-0.577c0.176-0.191,0.438-0.288,0.79-0.288h1.574c0.352,0,0.613,0.096,0.79,0.288
		c0.174,0.193,0.306,0.384,0.394,0.577l6.41,16.52c0.07,0.158,0.104,0.28,0.104,0.367c0,0.158-0.057,0.292-0.17,0.405
		c-0.114,0.114-0.25,0.17-0.408,0.17h-0.971c-0.352,0-0.598-0.073-0.735-0.223c-0.143-0.147-0.238-0.292-0.29-0.431L232.095,20.453z
		 M223.897,18.097h7.276l-3.625-9.348L223.897,18.097z"/>
	<path d="M249.169,15.034l8.959,8.508c0.105,0.104,0.174,0.196,0.21,0.274c0.036,0.08,0.052,0.145,0.052,0.197
		c0,0.158-0.056,0.292-0.17,0.405c-0.114,0.114-0.25,0.17-0.407,0.17h-1.629c-0.246,0-0.446-0.048-0.604-0.144
		c-0.158-0.095-0.271-0.179-0.342-0.248l-7.434-7.07v6.755c0,0.192-0.07,0.358-0.212,0.499c-0.141,0.139-0.306,0.208-0.5,0.208
		h-1.075c-0.193,0-0.359-0.069-0.499-0.208c-0.141-0.14-0.21-0.306-0.21-0.499V6.969c0-0.192,0.069-0.357,0.21-0.498
		c0.14-0.139,0.306-0.208,0.499-0.208h1.075c0.194,0,0.359,0.069,0.5,0.208c0.142,0.141,0.212,0.306,0.212,0.498v6.101l7.014-6.415
		c0.068-0.07,0.184-0.152,0.342-0.248c0.156-0.097,0.357-0.144,0.604-0.144h1.522c0.158,0,0.294,0.056,0.408,0.17
		c0.113,0.113,0.172,0.249,0.172,0.405c0,0.053-0.019,0.119-0.054,0.197c-0.036,0.079-0.104,0.169-0.21,0.274L249.169,15.034z"/>
	<path d="M278.935,22.233c0.192,0,0.358,0.07,0.498,0.209c0.14,0.141,0.21,0.306,0.21,0.498v0.942c0,0.192-0.07,0.358-0.21,0.499
		c-0.14,0.139-0.306,0.208-0.498,0.208h-10.613c-0.193,0-0.359-0.069-0.499-0.208c-0.141-0.14-0.21-0.306-0.21-0.499V6.969
		c0-0.192,0.069-0.357,0.21-0.498c0.14-0.139,0.306-0.208,0.499-0.208h10.401c0.194,0,0.36,0.069,0.5,0.208
		c0.142,0.141,0.21,0.306,0.21,0.498v0.942c0,0.192-0.068,0.359-0.21,0.498c-0.14,0.14-0.306,0.209-0.5,0.209h-8.616v5.525h8.039
		c0.191,0,0.359,0.069,0.5,0.209c0.14,0.141,0.209,0.306,0.209,0.497v0.943c0,0.192-0.069,0.358-0.209,0.498
		c-0.141,0.14-0.309,0.209-0.5,0.209h-8.039v5.734H278.935z"/>
	<g>
		<path d="M88.648,46.218c0.03-0.021,0.061-0.045,0.094-0.068c0.192-0.144,0.387-0.339,0.576-0.579
			c0.189-0.243,0.356-0.543,0.495-0.893c0.142-0.356,0.214-0.772,0.214-1.237c0-0.366-0.074-0.784-0.22-1.24
			c-0.149-0.465-0.403-0.905-0.754-1.303c-0.352-0.401-0.826-0.741-1.409-1.011c-0.585-0.27-1.326-0.408-2.204-0.408h-5.292
			c-0.213,0-0.407,0.082-0.56,0.235c-0.154,0.152-0.235,0.346-0.235,0.559v12.711c0,0.213,0.082,0.406,0.235,0.56
			c0.153,0.154,0.348,0.234,0.561,0.234h5.578c0.745,0,1.415-0.123,1.991-0.365c0.578-0.242,1.067-0.57,1.453-0.976
			c0.385-0.403,0.68-0.862,0.875-1.365c0.196-0.501,0.295-1.023,0.295-1.552c0-0.796-0.205-1.505-0.607-2.104
			C89.419,46.946,89.054,46.545,88.648,46.218z M87.942,49.52c0,0.266-0.051,0.516-0.148,0.744
			c-0.098,0.229-0.247,0.437-0.443,0.621c-0.197,0.183-0.449,0.33-0.75,0.436c-0.306,0.107-0.667,0.161-1.071,0.161h-3.776V47.52
			h3.776c0.429,0,0.801,0.059,1.106,0.17c0.301,0.113,0.551,0.262,0.741,0.446c0.188,0.181,0.331,0.394,0.421,0.633
			C87.894,49.013,87.942,49.266,87.942,49.52z M81.754,45.225v-3.45h3.489c0.817,0,1.43,0.152,1.823,0.457
			c0.376,0.29,0.56,0.706,0.56,1.269c0,0.562-0.184,0.978-0.56,1.269c-0.392,0.302-1.005,0.456-1.823,0.456H81.754z"/>
		<path d="M99.557,39.479h-0.811c-0.212,0-0.407,0.082-0.561,0.235c-0.154,0.152-0.235,0.346-0.235,0.559v12.711
			c0,0.213,0.081,0.406,0.235,0.56c0.153,0.154,0.347,0.234,0.561,0.234h0.811c0.212,0,0.406-0.08,0.561-0.234
			c0.154-0.153,0.235-0.348,0.235-0.56V40.272c0-0.212-0.081-0.405-0.235-0.559C99.963,39.559,99.769,39.479,99.557,39.479z"/>
		<path d="M117.946,46.218c0.029-0.021,0.062-0.045,0.094-0.068c0.192-0.144,0.386-0.339,0.576-0.579
			c0.19-0.243,0.356-0.544,0.495-0.893c0.142-0.356,0.214-0.772,0.214-1.237c0-0.366-0.075-0.784-0.22-1.24
			c-0.149-0.465-0.403-0.905-0.754-1.303c-0.353-0.401-0.827-0.741-1.411-1.011c-0.584-0.27-1.326-0.408-2.203-0.408h-5.292
			c-0.212,0-0.407,0.082-0.561,0.235c-0.154,0.152-0.235,0.346-0.235,0.559v12.711c0,0.213,0.081,0.406,0.236,0.56
			c0.153,0.154,0.348,0.234,0.562,0.234h5.578c0.745,0,1.414-0.123,1.99-0.365c0.579-0.242,1.066-0.57,1.454-0.976
			c0.385-0.404,0.68-0.862,0.875-1.365c0.195-0.501,0.294-1.023,0.294-1.552c0-0.796-0.204-1.505-0.607-2.104
			C118.717,46.946,118.353,46.545,117.946,46.218z M117.239,49.52c0,0.266-0.049,0.516-0.148,0.744
			c-0.097,0.229-0.246,0.437-0.442,0.621c-0.198,0.183-0.45,0.33-0.75,0.436c-0.306,0.107-0.667,0.161-1.071,0.161h-3.777V47.52
			h3.777c0.429,0,0.801,0.059,1.106,0.17c0.302,0.113,0.55,0.262,0.741,0.446c0.188,0.181,0.33,0.394,0.422,0.633
			C117.192,49.013,117.239,49.266,117.239,49.52z M111.052,45.225v-3.45h3.488c0.817,0,1.432,0.152,1.824,0.457
			c0.375,0.29,0.559,0.706,0.559,1.269c0,0.562-0.183,0.978-0.559,1.269c-0.392,0.302-1.006,0.456-1.824,0.456H111.052z"/>
		<path d="M136.08,51.481h-6.431V40.272c0-0.213-0.081-0.405-0.235-0.559c-0.154-0.155-0.348-0.235-0.561-0.235h-0.81
			c-0.213,0-0.408,0.082-0.561,0.235c-0.154,0.152-0.235,0.346-0.235,0.559v12.711c0,0.216,0.078,0.404,0.234,0.56
			c0.153,0.154,0.347,0.234,0.561,0.234h8.036c0.213,0,0.407-0.08,0.561-0.234c0.153-0.153,0.235-0.347,0.235-0.56v-0.708
			c0-0.212-0.082-0.406-0.236-0.56C136.486,51.563,136.292,51.481,136.08,51.481z"/>
		<path d="M152.622,51.481h-6.369v-3.785h5.779c0.215,0,0.406-0.079,0.561-0.233c0.154-0.152,0.236-0.347,0.236-0.559v-0.71
			c0-0.211-0.082-0.405-0.236-0.56c-0.154-0.151-0.348-0.232-0.561-0.232h-5.779v-3.628h6.214c0.212,0,0.406-0.081,0.561-0.234
			c0.153-0.153,0.233-0.347,0.233-0.56v-0.708c0-0.213-0.08-0.406-0.233-0.559c-0.154-0.153-0.349-0.235-0.561-0.235h-7.819
			c-0.212,0-0.406,0.082-0.56,0.234c-0.155,0.153-0.237,0.347-0.237,0.56v12.711c0,0.213,0.082,0.407,0.237,0.56
			c0.15,0.154,0.346,0.234,0.56,0.234h7.975c0.215,0,0.409-0.08,0.562-0.234c0.155-0.153,0.235-0.348,0.235-0.56v-0.708
			c0-0.212-0.08-0.406-0.235-0.56C153.031,51.563,152.837,51.481,152.622,51.481z"/>
		<path d="M177.021,42.506c0.569-0.616,1.412-0.929,2.501-0.929c0.599,0,1.107,0.074,1.509,0.219
			c0.401,0.147,0.734,0.336,0.992,0.562c0.255,0.225,0.453,0.484,0.589,0.771c0.143,0.305,0.252,0.617,0.324,0.909
			c0.038,0.213,0.144,0.383,0.306,0.495c0.151,0.102,0.307,0.154,0.465,0.154h0.909c0.188,0,0.357-0.071,0.492-0.205
			c0.133-0.133,0.205-0.303,0.205-0.499c-0.014-0.46-0.133-0.968-0.355-1.508c-0.223-0.539-0.568-1.053-1.032-1.528
			c-0.463-0.476-1.062-0.876-1.781-1.19c-0.722-0.313-1.604-0.474-2.622-0.474c-0.884,0-1.689,0.143-2.39,0.423
			c-0.699,0.281-1.311,0.673-1.812,1.169c-0.504,0.495-0.899,1.094-1.175,1.78c-0.275,0.682-0.426,1.426-0.452,2.214
			c-0.04,1.169-0.04,2.352,0,3.521c0.026,0.801,0.177,1.551,0.452,2.223c0.275,0.681,0.671,1.276,1.175,1.771
			s1.115,0.888,1.812,1.168c0.7,0.28,1.506,0.423,2.39,0.423c1.019,0,1.9-0.16,2.622-0.476c0.72-0.312,1.318-0.713,1.781-1.188
			c0.464-0.475,0.81-0.989,1.032-1.53c0.223-0.537,0.342-1.046,0.355-1.515c0-0.187-0.072-0.356-0.205-0.492
			c-0.137-0.134-0.307-0.203-0.492-0.203h-0.909c-0.158,0-0.313,0.051-0.465,0.154c-0.162,0.111-0.268,0.282-0.304,0.479
			c-0.074,0.309-0.184,0.62-0.326,0.924c-0.138,0.289-0.334,0.548-0.589,0.771c-0.258,0.226-0.591,0.414-0.992,0.561
			c-0.401,0.145-0.91,0.22-1.509,0.22c-1.105,0-1.923-0.304-2.501-0.93c-0.578-0.625-0.891-1.457-0.927-2.479
			c-0.028-0.581-0.04-1.134-0.04-1.641c0-0.508,0.012-1.061,0.04-1.645C176.13,43.965,176.442,43.131,177.021,42.506z"/>
		<path d="M203.232,39.479h-0.811c-0.213,0-0.406,0.082-0.561,0.235c-0.154,0.152-0.233,0.346-0.233,0.559v5.13h-6.425v-5.13
			c0-0.212-0.08-0.405-0.233-0.559c-0.154-0.153-0.349-0.235-0.562-0.235h-0.809c-0.214,0-0.406,0.082-0.561,0.235
			c-0.154,0.152-0.235,0.346-0.235,0.559v12.711c0,0.229,0.083,0.428,0.239,0.575c0.156,0.146,0.343,0.219,0.557,0.219h0.809
			c0.214,0,0.408-0.08,0.562-0.234c0.153-0.153,0.233-0.348,0.233-0.56v-5.287h6.425v5.287c0,0.213,0.079,0.406,0.233,0.56
			c0.154,0.154,0.348,0.234,0.561,0.234h0.811c0.214,0,0.408-0.08,0.561-0.234c0.154-0.153,0.235-0.348,0.235-0.56V40.272
			c0-0.212-0.081-0.405-0.235-0.559C203.641,39.561,203.446,39.479,203.232,39.479z"/>
		<path d="M222.56,39.479h-0.789c-0.215,0-0.406,0.082-0.561,0.235c-0.154,0.152-0.236,0.346-0.236,0.559v7.969
			c0,1.209-0.284,2.11-0.843,2.68c-0.564,0.576-1.335,0.855-2.349,0.855c-1.001,0-1.788-0.286-2.338-0.854
			c-0.555-0.569-0.835-1.472-0.835-2.681v-7.969c0-0.212-0.079-0.405-0.234-0.559c-0.153-0.153-0.348-0.235-0.562-0.235h-0.808
			c-0.213,0-0.407,0.082-0.561,0.235c-0.154,0.152-0.234,0.346-0.234,0.559v7.872c0,0.831,0.102,1.607,0.305,2.305
			c0.208,0.709,0.54,1.334,0.99,1.857c0.454,0.529,1.041,0.942,1.749,1.234c0.7,0.287,1.551,0.433,2.528,0.433
			c0.964,0,1.81-0.146,2.509-0.433c0.706-0.29,1.295-0.705,1.747-1.234c0.45-0.523,0.787-1.146,1.001-1.854
			c0.21-0.698,0.318-1.476,0.318-2.309v-7.872c0-0.212-0.082-0.405-0.237-0.56C222.968,39.559,222.772,39.479,222.56,39.479z"/>
		<path d="M239.411,47.834c0.738-0.286,1.363-0.727,1.859-1.313c0.57-0.675,0.861-1.585,0.861-2.706c0-0.76-0.139-1.423-0.413-1.968
			c-0.273-0.545-0.648-1-1.113-1.351c-0.46-0.347-0.996-0.606-1.599-0.771c-0.595-0.163-1.229-0.246-1.897-0.246h-4.776
			c-0.214,0-0.409,0.082-0.561,0.235c-0.154,0.152-0.236,0.346-0.236,0.559v12.711c0,0.216,0.08,0.404,0.236,0.56
			c0.151,0.154,0.347,0.234,0.561,0.234h0.81c0.213,0,0.407-0.08,0.561-0.234c0.155-0.153,0.235-0.348,0.235-0.56v-4.756h2.981
			l2.785,4.885c0.062,0.112,0.163,0.237,0.304,0.385c0.178,0.188,0.438,0.28,0.775,0.28h0.846c0.188,0,0.359-0.07,0.493-0.204
			c0.133-0.134,0.206-0.304,0.206-0.49c0-0.107-0.03-0.219-0.095-0.348L239.411,47.834z M239.729,43.814
			c0,0.757-0.219,1.282-0.671,1.608c-0.473,0.339-1.158,0.511-2.047,0.511h-3.073v-4.159h3.073c0.891,0,1.581,0.16,2.056,0.478
			C239.513,42.55,239.729,43.061,239.729,43.814z"/>
		<path d="M252.634,42.506c0.57-0.616,1.412-0.929,2.502-0.929c0.598,0,1.106,0.074,1.509,0.219
			c0.401,0.147,0.736,0.336,0.992,0.562c0.254,0.225,0.452,0.484,0.588,0.771c0.143,0.305,0.253,0.617,0.325,0.909
			c0.037,0.213,0.144,0.384,0.306,0.494c0.15,0.103,0.306,0.155,0.467,0.155h0.906c0.188,0,0.36-0.071,0.492-0.205
			c0.134-0.133,0.206-0.303,0.206-0.499c-0.017-0.46-0.134-0.968-0.356-1.508s-0.568-1.054-1.029-1.528
			c-0.465-0.476-1.063-0.876-1.784-1.19c-0.721-0.313-1.604-0.474-2.621-0.474c-0.886,0-1.689,0.143-2.389,0.423
			c-0.702,0.281-1.312,0.673-1.815,1.169c-0.504,0.495-0.897,1.094-1.174,1.78c-0.272,0.681-0.425,1.425-0.452,2.214
			c-0.04,1.169-0.04,2.352,0,3.521c0.027,0.801,0.18,1.552,0.454,2.223c0.274,0.681,0.67,1.276,1.172,1.771
			c0.506,0.495,1.115,0.888,1.815,1.168c0.699,0.28,1.501,0.423,2.389,0.423c1.018,0,1.9-0.16,2.621-0.476
			c0.721-0.312,1.319-0.713,1.784-1.188c0.461-0.475,0.807-0.989,1.029-1.53c0.223-0.538,0.34-1.046,0.356-1.515
			c0-0.187-0.072-0.356-0.206-0.49c-0.134-0.136-0.305-0.205-0.492-0.205h-0.906c-0.161,0-0.316,0.051-0.465,0.154
			c-0.164,0.11-0.271,0.281-0.306,0.479c-0.074,0.309-0.183,0.62-0.327,0.924c-0.136,0.288-0.334,0.548-0.588,0.771
			c-0.256,0.226-0.591,0.414-0.992,0.561c-0.402,0.145-0.908,0.22-1.509,0.22c-1.107,0-1.924-0.304-2.502-0.93
			c-0.579-0.625-0.891-1.457-0.927-2.479c-0.025-0.581-0.04-1.134-0.04-1.641c0-0.508,0.015-1.061,0.04-1.645
			C251.743,43.965,252.055,43.131,252.634,42.506z"/>
		<path d="M279.406,39.714c-0.153-0.153-0.349-0.235-0.561-0.235h-0.81c-0.213,0-0.407,0.082-0.561,0.235
			c-0.155,0.152-0.235,0.346-0.235,0.559v5.13h-6.423v-5.13c0-0.213-0.082-0.406-0.234-0.559c-0.153-0.153-0.349-0.235-0.562-0.235
			h-0.808c-0.215,0-0.409,0.082-0.561,0.234c-0.155,0.153-0.236,0.346-0.236,0.56v12.711c0,0.229,0.083,0.429,0.24,0.575
			c0.153,0.144,0.346,0.219,0.557,0.219h0.808c0.214,0,0.409-0.08,0.562-0.234c0.152-0.153,0.234-0.347,0.234-0.56v-5.287h6.423
			v5.287c0,0.213,0.08,0.406,0.235,0.56c0.153,0.154,0.348,0.234,0.561,0.234h0.81c0.215,0,0.407-0.08,0.561-0.234
			c0.154-0.153,0.236-0.348,0.236-0.56V40.272C279.643,40.061,279.561,39.867,279.406,39.714z"/>
	</g>
</g>
<g>
	<path fill="#231F20" d="M28.826,18.263v7.263c0,2.212,1.8,4.012,4.013,4.012h7.264v-2.5h-7.264c-0.834,0-1.513-0.678-1.513-1.512
		v-7.263H28.826z"/>
	<path fill="#231F20" d="M22.215,27.038h-7.264v2.5h7.264c1.067,0,2.073-0.418,2.834-1.178c0.759-0.76,1.177-1.767,1.177-2.834
		l-0.001-7.263h-2.5l0.001,7.263c0,0.401-0.158,0.78-0.445,1.066C22.995,26.88,22.616,27.038,22.215,27.038z"/>
	<path fill="#231F20" d="M51.14,13.946L30.346,1.941c-1.608-0.929-4.033-0.928-5.641,0L3.912,13.947
		c-1.608,0.928-2.821,3.028-2.821,4.885v24.011c0,1.857,1.213,3.958,2.821,4.887l18.277,10.55c0.978,0.569,2.007,0.622,2.826,0.151
		c0.814-0.471,1.281-1.39,1.281-2.52l0-20.043c0-2.096-1.705-3.8-3.8-3.8h-7.544v2.5h7.544c0.717,0,1.3,0.583,1.3,1.3l0,20.043
		c0,0.193-0.031,0.301-0.026,0.336c-0.053-0.008-0.162-0.034-0.329-0.132L5.162,45.563c-0.822-0.474-1.571-1.771-1.571-2.721V24.075
		l22.401-12.933c0.803-0.464,2.266-0.464,3.069,0L51.46,24.075v18.768c0,0.95-0.749,2.247-1.57,2.721L31.609,56.117
		c-0.177,0.104-0.29,0.126-0.297,0.156c-0.02-0.043-0.056-0.152-0.056-0.361V35.868c0-0.717,0.583-1.3,1.3-1.3h7.546v-2.5h-7.546
		c-2.095,0-3.8,1.704-3.8,3.8v20.044c0,1.129,0.466,2.047,1.282,2.52c0.367,0.211,0.774,0.318,1.212,0.318
		c0.532,0,1.074-0.158,1.61-0.468l18.28-10.553c1.608-0.929,2.82-3.029,2.82-4.887V18.832C53.96,16.976,52.748,14.875,51.14,13.946z
		 M30.312,8.978c-1.589-0.919-3.983-0.918-5.57,0L3.591,21.188v-2.356c0-0.949,0.749-2.246,1.571-2.72L25.956,4.106
		c0.822-0.475,2.319-0.475,3.141,0L49.89,16.11c0.822,0.476,1.571,1.772,1.571,2.722v2.356L30.312,8.978z"/>
</g>
</svg>
